<?xml version="1.0" standalone="no"?>
<!DOCTYPE svg PUBLIC "-//W3C//DTD SVG 20010904//EN"
 "http://www.w3.org/TR/2001/REC-SVG-20010904/DTD/svg10.dtd">
<svg version="1.0" xmlns="http://www.w3.org/2000/svg"
 width="338.000000pt" height="338.000000pt" viewBox="0 0 338.000000 338.000000"
 preserveAspectRatio="xMidYMid meet">

<g transform="translate(0.000000,338.000000) scale(0.100000,-0.100000)"
fill="#000000" stroke="none">
<path d="M935 2382 c-71 -6 -97 -15 -131 -44 -71 -63 -69 -46 -69 -513 0 -410
0 -421 21 -460 52 -96 82 -105 351 -105 190 0 222 -2 243 -17 14 -9 87 -70
163 -135 186 -158 169 -158 361 6 80 69 154 130 165 135 12 7 104 11 238 11
245 0 277 7 326 72 44 57 48 105 45 524 -3 417 -2 408 -57 467 -59 64 -10 61
-856 61 -424 1 -783 0 -800 -2z m515 -347 l50 -25 50 25 c97 49 195 24 251
-63 27 -42 30 -54 27 -107 -2 -36 -11 -71 -22 -87 -26 -40 -294 -241 -312
-234 -34 13 -273 203 -294 233 -36 53 -38 120 -6 180 55 100 154 130 256 78z
m690 -235 l0 -230 -35 0 -35 0 -2 186 -3 186 -39 -31 c-45 -36 -57 -38 -73
-11 -11 17 -6 25 58 75 49 38 80 55 100 55 l29 0 0 -230z"/>
</g>
</svg>
